<?xml version="1.0" encoding="UTF-8" standalone="no"?><svg xmlns="http://www.w3.org/2000/svg" xmlns:xlink="http://www.w3.org/1999/xlink" data-name="Layer 1" fill="#1dcd8d" height="62.8" preserveAspectRatio="xMidYMid meet" version="1" viewBox="0.2 0.6 63.5 62.8" width="63.5" zoomAndPan="magnify"><g id="change1_1"><path d="M42,14H22a2.002,2.002,0,0,0-2,2v8.6748l-7.01367,9.64356a7.04514,7.04514,0,0,0-1.21826,2.82715L9.09229,51.41406a.992.992,0,0,1-.15088.3711L3.168,60.44531,4.832,61.55469l5.77344-8.66016a2.99145,2.99145,0,0,0,.45264-1.11182l2.67578-14.269a5.02822,5.02822,0,0,1,.87011-2.019L20,28.0752V40a1.00094,1.00094,0,0,0,.168.55469l2,3a.99961.99961,0,0,0,1.4458.23486L30.541,38.40186a1.58019,1.58019,0,0,1,2.23486.29882,1.61367,1.61367,0,0,1-.26856,2.18067L26.28174,47.3042a1.00306,1.00306,0,0,0-.20069.30176L23.57471,53.4541A4.01311,4.01311,0,0,1,22.397,55.002l-4.02148,3.21729a.9974.9974,0,0,0-.32422.46435l-1,3,1.89746.63282.90674-2.72022L23.646,56.564a6.0175,6.0175,0,0,0,1.7666-2.32177L27.231,50H42a2.002,2.002,0,0,0,2-2V16A2.002,2.002,0,0,0,42,14Zm0,5a3.00328,3.00328,0,0,1-3-3h3ZM22,16h3a3.00328,3.00328,0,0,1-3,3Zm9.98682,20.1001a3.54985,3.54985,0,0,0-2.67334.72265l-.39728.309a6.00087,6.00087,0,1,1,5.45483.36384A3.5538,3.5538,0,0,0,31.98682,36.1001Zm1.90332,6.22461a3.59247,3.59247,0,0,0,1.1828-2.9635A7.99948,7.99948,0,1,0,27.25989,38.42l-4.02454,3.13031L22,39.69727V21a5.00588,5.00588,0,0,0,5-5H37a5.00588,5.00588,0,0,0,5,5V43a5.00588,5.00588,0,0,0-5,5H28.39209ZM42,48H39a3.00328,3.00328,0,0,1,3-3Z"/></g><g id="change1_2"><path d="M33.50244,32.75v2A2.49709,2.49709,0,0,0,35.80359,33H37V31H35.80359a2.49709,2.49709,0,0,0-2.30115-1.75A2.62679,2.62679,0,0,0,31.02588,32c0,.4292-.25147.75-.47656.75s-.47657-.3208-.47657-.75.25147-.75.47657-.75v-2A2.49708,2.49708,0,0,0,28.24817,31H27v2h1.24817a2.49708,2.49708,0,0,0,2.30115,1.75A2.62679,2.62679,0,0,0,33.02588,32c0-.4292.25146-.75.47656-.75s.47656.3208.47656.75S33.72754,32.75,33.50244,32.75Z"/></g><g id="change1_3"><path d="M43,55a4.00458,4.00458,0,0,0-4,4c0,.03308.009.06372.00977.09662a28.29087,28.29087,0,0,1-15.69971-.47113l-.62012,1.90137a29.952,29.952,0,0,0,16.87732.493A3.9928,3.9928,0,1,0,43,55Zm0,6a2,2,0,1,1,2-2A2.002,2.002,0,0,1,43,61Z"/></g><g id="change1_4"><path d="M21,9a4.00458,4.00458,0,0,0,4-4c0-.03381-.00916-.06512-.01-.09875A27.96731,27.96731,0,0,1,60,32a27.76975,27.76975,0,0,1-4.6908,15.48108L54.12109,46.293a.99981.99981,0,0,0-1.67724.46435l-1.41406,5.65674A1.00037,1.00037,0,0,0,52.24268,53.627l5.65673-1.41406a.99981.99981,0,0,0,.46436-1.67725L56.75012,48.922A29.97571,29.97571,0,0,0,32,2a30.0643,30.0643,0,0,0-7.56726.9801A3.9928,3.9928,0,1,0,21,9ZM53.37451,51.28223l.58154-2.32618,1.74463,1.74463ZM21,3a2,2,0,1,1-2,2A2.002,2.002,0,0,1,21,3Z"/></g><g id="change1_5"><path d="M6.97607,48.55225l1.667-1.1045A27.95517,27.95517,0,0,1,8.6908,16.51892L9.87891,17.707a.99981.99981,0,0,0,1.67724-.46435l1.41406-5.65674A1.00032,1.00032,0,0,0,11.75732,10.373L6.10059,11.78711a.99981.99981,0,0,0-.46436,1.67725L7.24988,15.078a29.9565,29.9565,0,0,0-.27381,33.47425Zm3.64942-35.83448L10.044,15.044,8.29932,13.29932Z"/></g></svg>