<?xml version="1.0" encoding="UTF-8" standalone="no"?><svg xmlns="http://www.w3.org/2000/svg" xmlns:xlink="http://www.w3.org/1999/xlink" fill="#1dcd8d" height="744.5" preserveAspectRatio="xMidYMid meet" version="1" viewBox="-0.7 0.0 629.1 744.5" width="629.1" zoomAndPan="magnify"><g id="change1_1"><path d="M621.55,108.16c-9.31-10.56-24.75-7.79-37.17-10.61C494.43,82.74,409.92,45.98,329.19,4.8c-3.84-1.83-7.85-3.4-11.87-4.8 h-5.82c-14.02,4.19-26.44,12.19-39.64,18.29C201.06,53.07,126.81,83.03,48.75,96.73c-11.23,2.27-22.92,2.09-33.91,5.38 c-8.72,3.84-15.12,12.97-14.63,22.65c-0.9,53.83,1.05,107.69,5.26,161.35c6.08,68.28,15.91,136.95,38.88,201.83 c11.14,30.1,25.3,59.68,46.65,83.96c58.25,68.95,130.61,125.46,209.8,168.47c3.37,1.69,6.89,3.05,10.5,4.13h5.06 c14.13-3.98,25.8-13.38,38.71-20.01c61.36-36.32,117.49-81.52,165.82-133.95c14.6-16.52,29.61-33.07,40.05-52.61 c24.31-43.19,37.14-91.67,46.73-139.94c16.52-88,20.79-177.84,20.3-267.2C628.24,122.81,627.63,114.06,621.55,108.16z M587.41,378.21c-9.89,54.21-22.74,109.41-51.88,156.87c-25.88,37.46-59.24,69.04-93.38,98.85 c-39.38,33.62-82.68,62.41-128.11,87.22c-79.71-43.27-152.71-100.16-210.32-170.48c-29.69-37.98-43.74-85.24-54.85-131.42 c-21.46-96.87-26.55-196.62-25.16-295.59c102.83-11.6,198.92-53.92,290.35-100.27c91.4,46.41,187.61,88.61,290.47,100.22 C605.82,208.72,601.75,294.19,587.41,378.21z" fill="inherit"/><path d="M69.9,164.08c1.72,91.58,6.98,184.15,31.18,272.9c9.48,32.72,21.67,65.96,45.02,91.52 c46.97,56.16,105.22,101.96,167.98,139.27c66.77-39.7,128.43-89.22,176.93-150.21c22.97-31.52,33.85-69.8,42.84-107.25 c18.09-80.7,22.97-163.73,24.31-246.21c-85.44-16.49-166.55-49.76-244.11-88.5C236.45,114.32,155.37,147.65,69.9,164.08z" fill="inherit"/></g></svg>